<?xml version="1.0" encoding="UTF-8" standalone="no"?>
<!DOCTYPE svg PUBLIC "-//W3C//DTD SVG 1.1//EN" "http://www.w3.org/Graphics/SVG/1.1/DTD/svg11.dtd">
<svg xmlns="http://www.w3.org/2000/svg" xmlns:xlink="http://www.w3.org/1999/xlink" version="1.1" width="1000" height="600" viewBox="0 0 1566.727 897.71456">
<g enable-background="new">
<path transform="matrix(1,0,-0,1,1223.6431,246.57196)" d="M 0 22.397332 C 0 10.027996 10.0266 0 22.397267 0 C 34.7666 0 44.794664 10.027996 44.794664 22.397332 C 44.794664 34.767999 34.7666 44.794664 22.397267 44.794664 C 10.0266 44.794664 0 34.767999 0 22.397332 Z " fill="#f7a60e"/>
<path transform="matrix(1,0,-0,1,1179.4111,209.6601)" d="M 0 23.347973 C 0 10.453308 10.45338 -.000008 23.348046 -.000008 C 36.24138 -.000008 46.69466 10.453308 46.69466 23.347973 C 46.69466 36.242639 36.24138 46.695955 23.348046 46.695955 C 10.45338 46.695955 0 36.242639 0 23.347973 Z " fill="#f7a60e"/>
<path transform="matrix(1,0,-0,1,1129.7217,186.44672)" d="M 0 21.194647 C 0 9.489315 9.487994 -.000015 21.19466 -.000015 C 32.89866 -.000015 42.38802 9.489315 42.38802 21.194647 C 42.38802 32.898645 32.89866 42.38794 21.19466 42.38794 C 9.487994 42.38794 0 32.898645 0 21.194647 Z " fill="#f7a60e"/>
<path transform="matrix(1,0,-0,1,1258.7844,296.08674)" d="M 0 20.136002 C 0 9.016003 9.016036 0 20.137372 0 C 31.257372 0 40.27344 9.016003 40.27344 20.136002 C 40.27344 31.257336 31.257372 40.272005 20.137372 40.272005 C 9.016036 40.272005 0 31.257336 0 20.136002 Z " fill="#f7a60e"/>
<path transform="matrix(1,0,-0,1,1076.6577,180.8039)" d="M 0 18.576054 C 0 8.316053 8.317309 .000011 18.575976 .000011 C 28.833308 .000011 37.15065 8.316053 37.15065 18.576054 C 37.15065 28.833386 28.833308 37.150728 18.575976 37.150728 C 8.317309 37.150728 0 28.833386 0 18.576054 Z " fill="#f7a60e"/>
<path transform="matrix(1,0,-0,1,1023.2603,186.65204)" d="M 0 16.29062 C 0 7.293287 7.293356 -.000004 16.29069 -.000004 C 25.288023 -.000004 32.581315 7.293287 32.581315 16.29062 C 32.581315 25.287953 25.288023 32.58261 16.29069 32.58261 C 7.293356 32.58261 0 25.287953 0 16.29062 Z " fill="#f7a60e"/>
<path transform="matrix(1,0,-0,1,1281.0177,351.13874)" d="M 0 17.104 C 0 7.658667 7.65737 -.000004 17.104037 -.000004 C 26.550702 -.000004 34.209375 7.658667 34.209375 17.104 C 34.209375 26.550667 26.550702 34.209306 17.104037 34.209306 C 7.65737 34.209306 0 26.550667 0 17.104 Z " fill="#f7a60e"/>
<path transform="matrix(1,0,-0,1,971.62167,208.18)" d="M 0 14.808013 C 0 6.629347 6.629342 .000004 14.808008 .000004 C 22.984009 .000004 29.61465 6.629347 29.61465 14.808013 C 29.61465 22.985348 22.984009 29.614655 14.808008 29.614655 C 6.629342 29.614655 0 22.985348 0 14.808013 Z " fill="#f7a60e"/>
<path transform="matrix(1,0,-0,1,1288.435,411.06935)" d="M 0 14.806675 C 0 6.629341 6.629406 0 14.808072 0 C 22.985405 0 29.614712 6.629341 29.614712 14.806675 C 29.614712 22.985342 22.985405 29.61465 14.808072 29.61465 C 6.629406 29.61465 0 22.985342 0 14.806675 Z " fill="#f7a60e"/>
<path transform="matrix(1,0,-0,1,1280.2245,468.25199)" d="M 0 12.136003 C 0 5.433334 5.433239 0 12.137239 0 C 18.839905 0 24.274609 5.433334 24.274609 12.136003 C 24.274609 18.840003 18.839905 24.27334 12.137239 24.27334 C 5.433239 24.27334 0 18.840003 0 12.136003 Z " fill="#f7a60e"/>
<path transform="matrix(1,0,-0,1,1258.1045,521.74008)" d="M 0 10.854659 C 0 4.85866 4.861323 .000004 10.85599 .000004 C 16.85199 .000004 21.713282 4.85866 21.713282 10.854659 C 21.713282 16.849326 16.85199 21.710648 10.85599 21.710648 C 4.861323 21.710648 0 16.849326 0 10.854659 Z " fill="#f7a60e"/>
<path transform="matrix(1,0,-0,1,1323.3765,571.2787)" d="M 0 31.04131 C 0 13.897308 13.897277 .000004 31.041277 .000004 C 48.190614 .000004 62.08399 13.897308 62.08399 31.04131 C 62.08399 48.18531 48.190614 62.081315 31.041277 62.081315 C 13.897277 62.081315 0 48.18531 0 31.04131 Z " fill="#4273ae"/>
<path transform="matrix(1,0,-0,1,1193.651,678.90139)" d="M 0 32.761327 C 0 14.667995 14.666659 0 32.761327 0 C 50.85599 0 65.524089 14.667995 65.524089 32.761327 C 65.524089 50.85599 50.85599 65.52399 32.761327 65.52399 C 14.666659 65.52399 0 50.85599 0 32.761327 Z " fill="#4273ae"/>
<path transform="matrix(1,0,-0,1,1262.5911,630.8)" d="M 0 34.225328 C 0 15.32399 15.322594 0 34.22526 0 C 53.126596 0 68.44922 15.32399 68.44922 34.225328 C 68.44922 53.12799 53.126596 68.45067 34.22526 68.45067 C 15.322594 68.45067 0 53.12799 0 34.225328 Z " fill="#4273ae"/>
<path transform="matrix(1,0,-0,1,1367.927,499.092)" d="M 0 28.09333 C 0 12.578663 12.573359 0 28.093358 0 C 43.613359 0 56.186716 12.578663 56.186716 28.09333 C 56.186716 43.607999 43.613359 56.185358 28.093358 56.185358 C 12.573359 56.185358 0 43.607999 0 28.09333 Z " fill="#4273ae"/>
<path transform="matrix(1,0,-0,1,1115.0549,709.56668)" d="M 0 30.073315 C 0 13.463982 13.465275 -.000008 30.074608 -.000008 C 46.682607 -.000008 60.148046 13.463982 60.148046 30.073315 C 60.148046 46.68278 46.682607 60.147859 30.074608 60.147859 C 13.465275 60.147859 0 46.68278 0 30.073315 Z " fill="#4273ae"/>
<path transform="matrix(1,0,-0,1,1389.1538,419.29203)" d="M 0 24.790657 C 0 11.098656 11.093255 0 24.786587 0 C 38.47992 0 49.573305 11.098656 49.573305 24.790657 C 49.573305 38.482656 38.47992 49.58268 24.786587 49.58268 C 11.093255 49.58268 0 38.482656 0 24.790657 Z " fill="#4273ae"/>
<path transform="matrix(1,0,-0,1,1034.575,718.1853)" d="M 0 24.789322 C 0 11.098656 11.098689 0 24.79069 0 C 38.481355 0 49.58138 11.098656 49.58138 24.789322 C 49.58138 38.482789 38.481355 49.58133 24.79069 49.58133 C 11.098689 49.58133 0 38.482789 0 24.789322 Z " fill="#4273ae"/>
<path transform="matrix(1,0,-0,1,1387.5004,334.06135)" d="M 0 22.603999 C 0 10.119999 10.120001 -.000004 22.6 -.000004 C 35.08 -.000004 45.2 10.119999 45.2 22.603999 C 45.2 35.087999 35.08 45.209337 22.6 45.209337 C 10.120001 45.209337 0 35.087999 0 22.603999 " fill="#4273ae"/>
<path transform="matrix(1,0,-0,1,954.1977,700.156)" d="M 0 22.605334 C 0 10.121334 10.120036 -.000004 22.604035 -.000004 C 35.088037 -.000004 45.209375 10.121334 45.209375 22.605334 C 45.209375 35.089334 35.088037 45.209337 22.604035 45.209337 C 10.120036 45.209337 0 35.089334 0 22.605334 Z " fill="#4273ae"/>
<path transform="matrix(1,0,-0,1,1367.0071,259.8147)" d="M 0 16.205344 C 0 7.25601 7.266745 .000008 16.213412 .000008 C 25.160077 .000008 32.41341 7.25601 32.41341 16.205344 C 32.41341 25.15601 25.160077 32.41205 16.213412 32.41205 C 7.266745 32.41205 0 25.15601 0 16.205344 Z " fill="#4273ae"/>
<path transform="matrix(1,0,-0,1,1322.4912,189.56525)" d="M 0 12.605354 C 0 5.642687 5.643875 .000015 12.605207 .000015 C 19.567875 .000015 25.211977 5.642687 25.211977 12.605354 C 25.211977 19.566689 19.567875 25.210694 12.605207 25.210694 C 5.643875 25.210694 0 19.566689 0 12.605354 Z " fill="#4273ae"/>
<path transform="matrix(1,0,-0,1,1325.5818,371.08668)" d="M 0 27.557354 C 0 12.338688 12.337322 0 27.555989 0 C 42.771989 0 55.105337 12.338688 55.105337 27.557354 C 55.105337 42.77602 42.771989 55.113344 27.555989 55.113344 C 12.337322 55.113344 0 42.77602 0 27.557354 Z " fill="#3e5970"/>
<path transform="matrix(1,0,-0,1,1314.1631,304.0893)" d="M 0 25.533328 C 0 11.431995 11.433432 -.000004 25.534764 -.000004 C 39.636098 -.000004 51.0707 11.431995 51.0707 25.533328 C 51.0707 39.635995 39.636098 51.067995 25.534764 51.067995 C 11.433432 51.067995 0 39.635995 0 25.533328 Z " fill="#3e5970"/>
<path transform="matrix(1,0,-0,1,1323.4218,439.77473)" d="M 0 26.517315 C 0 11.871983 11.872015 0 26.516015 0 C 41.15868 0 53.03867 11.871983 53.03867 26.517315 C 53.03867 41.161317 41.15868 53.031995 26.516015 53.031995 C 11.872015 53.031995 0 41.161317 0 26.517315 Z " fill="#3e5970"/>
<path transform="matrix(1,0,-0,1,1286.5151,244.31195)" d="M 0 21.819987 C 0 9.769321 9.769255 0 21.819922 0 C 33.87192 0 43.641275 9.769321 43.641275 21.819987 C 43.641275 33.871988 33.87192 43.641344 21.819922 43.641344 C 9.769255 43.641344 0 33.871988 0 21.819987 Z " fill="#3e5970"/>
<path transform="matrix(1,0,-0,1,1305.2337,511.2027)" d="M 0 22.304005 C 0 9.985336 9.98537 0 22.304036 0 C 34.62137 0 44.60664 9.985336 44.60664 22.304005 C 44.60664 34.621339 34.62137 44.606676 22.304036 44.606676 C 9.98537 44.606676 0 34.621339 0 22.304005 Z " fill="#3e5970"/>
<path transform="matrix(1,0,-0,1,1245.4578,194.20001)" d="M 0 18.716015 C 0 8.378681 8.379886 -.000004 18.715886 -.000004 C 29.053217 -.000004 37.4319 8.378681 37.4319 18.716015 C 37.4319 29.052014 29.053217 37.430665 18.715886 37.430665 C 8.379886 37.430665 0 29.052014 0 18.716015 Z " fill="#3e5970"/>
<path transform="matrix(1,0,-0,1,1267.7578,571.02267)" d="M 0 20.444016 C 0 9.153349 9.151912 .000004 20.44258 .000004 C 31.731913 .000004 40.88659 9.153349 40.88659 20.444016 C 40.88659 31.73468 31.731913 40.886674 20.44258 40.886674 C 9.151912 40.886674 0 31.73468 0 20.444016 Z " fill="#3e5970"/>
<path transform="matrix(1,0,-0,1,1217.3591,618.776)" d="M 0 18.473347 C 0 8.270679 8.27064 .000008 18.473307 .000008 C 28.677306 .000008 36.94935 8.270679 36.94935 18.473347 C 36.94935 28.677348 28.677306 36.94934 18.473307 36.94934 C 8.27064 36.94934 0 28.677348 0 18.473347 Z " fill="#3e5970"/>
<path transform="matrix(1,0,-0,1,1157.0645,653.0747)" d="M 0 16.04534 C 0 7.182674 7.183979 -.000004 16.045311 -.000004 C 24.907979 -.000004 32.090623 7.182674 32.090623 16.04534 C 32.090623 24.906674 24.907979 32.090669 16.045311 32.090669 C 7.183979 32.090669 0 24.906674 0 16.04534 Z " fill="#3e5970"/>
<path transform="matrix(1,0,-0,1,1092.519,668.6306)" d="M 0 12.746669 C 0 5.706669 5.707982 .000006 12.747981 .000006 C 19.789315 .000006 25.496027 5.706669 25.496027 12.746669 C 25.496027 19.788002 19.789315 25.496003 12.747981 25.496003 C 5.707982 25.496003 0 19.788002 0 12.746669 Z " fill="#3e5970"/>
<path transform="matrix(1,0,-0,1,1189.239,158.56525)" d="M 0 16.052018 C 0 7.186686 7.188083 0 16.052083 0 C 24.917416 0 32.104036 7.186686 32.104036 16.052018 C 32.104036 24.91735 24.917416 32.104036 16.052083 32.104036 C 7.188083 32.104036 0 24.91735 0 16.052018 Z " fill="#3e5970"/>
<path transform="matrix(1,0,-0,1,1125.6712,138.95197)" d="M 0 13.69864 C 0 6.133307 6.133364 .000008 13.698697 .000008 C 21.262698 .000008 27.395962 6.133307 27.395962 13.69864 C 27.395962 21.263974 21.262698 27.397339 13.698697 27.397339 C 6.133364 27.397339 0 21.263974 0 13.69864 Z " fill="#3e5970"/>
<path transform="matrix(1,0,-0,1,1057.4578,137.62268)" d="M 0 11.188021 C 0 5.00802 5.009355 -.000002 11.188022 -.000002 C 17.366688 -.000002 22.375979 5.00802 22.375979 11.188021 C 22.375979 17.366688 17.366688 22.375977 11.188022 22.375977 C 5.009355 22.375977 0 17.366688 0 11.188021 Z " fill="#3e5970"/>
<path transform="matrix(1,0,-0,1,128,128.00006)" d="M 81.98307 189.33866 L 59.956396 189.33866 L 59.956396 19.560013 L 0 19.560013 L 0 0 L 141.93906 0 L 141.93906 19.560013 L 81.98307 19.560013 L 81.98307 189.33866 Z " fill="#4273ae"/>
<path transform="matrix(1,0,-0,1,303.7257,128.00006)" d="M 143.76267 189.33866 L 121.73601 189.33866 L 121.73601 100.23729 L 22.025326 100.23729 L 22.025326 189.33866 L 0 189.33866 L 0 0 L 22.025326 0 L 22.025326 80.55201 L 121.73601 80.55201 L 121.73601 0 L 143.76267 0 L 143.76267 189.33866 Z " fill="#4273ae"/>
<path transform="matrix(1,0,-0,1,504.71907,128.00006)" d="M 0 189.33866 L 0 0 L 22.026659 0 L 22.026659 189.33866 L 0 189.33866 Z " fill="#4273ae"/>
<path transform="matrix(1,0,-0,1,583.9777,128.00006)" d="M 147.90671 189.33866 L 122.77201 189.33866 L 19.301369 30.43866 L 18.265366 30.43866 C 19.644032 49.087999 20.33737 66.18265 20.33737 81.72264 L 20.33737 189.33866 L 0 189.33866 L 0 0 L 24.865366 0 L 128.08666 158.25734 L 129.12267 158.25734 C 128.94667 155.92534 128.56403 148.43466 127.95203 135.78534 C 127.35069 123.14534 127.133358 114.10001 127.310688 108.66001 L 127.310688 0 L 147.90671 0 L 147.90671 189.33866 Z " fill="#4273ae"/>
<path transform="matrix(1,0,-0,1,789.2404,128.00006)" d="M 136.75865 189.33866 L 110.857288 189.33866 L 41.836 97.522647 L 22.025324 115.13599 L 22.025324 189.33866 L 0 189.33866 L 0 0 L 22.025324 0 L 22.025324 93.897319 L 107.88398 0 L 133.91999 0 L 57.770635 82.24133 L 136.75865 189.33866 " fill="#4273ae"/>
<path transform="matrix(1,0,-0,1,277.87373,362.72804)" d="M 0 141.47336 L 44.95334 141.47336 C 44.95334 154.07202 57.55201 163.8107 73.02134 163.8107 C 87.62934 163.8107 98.797359 157.22135 98.797359 144.33335 C 98.797359 136.604 94.49869 129.44536 77.030689 123.71603 L 53.542665 116.556 C 10.018661 104.818668 1.709342 78.18134 1.709342 59.56401 C 1.709342 24.057343 32.065355 0 71.30135 0 C 109.10669 0 138.02268 22.628006 138.02268 61.004014 L 93.06802 61.004014 C 93.06802 49.254686 85.90933 39.236009 70.44133 39.236009 C 56.413328 39.236009 47.243997 47.824007 47.243997 58.70401 C 47.243997 62.712007 48.39334 71.592029 66.721347 76.75203 L 87.33866 83.05069 C 115.40533 91.64003 144.04267 106.248027 144.04267 142.04402 C 144.04267 184.42803 107.38669 202.46535 71.30135 202.46535 C 29.205353 202.46535 0 177.84003 0 141.47336 " fill="#393536"/>
<path transform="matrix(1,0,-0,1,439.13508,362.72804)" d="M 156.07064 101.088 C 156.07064 68.16266 133.45465 42.38536 100.51865 42.38536 C 67.301319 42.38536 45.243978 68.16266 45.243978 101.088 C 45.243978 134.024 67.301319 160.08136 100.51865 160.08136 C 133.45465 160.08136 156.07064 134.024 156.07064 101.088 Z M 0 101.088 C 0 45.24533 44.383996 0 100.797328 0 C 156.36133 0 201.31601 45.24533 201.31601 101.088 C 201.31601 156.932 156.36133 202.46535 100.797328 202.46535 C 44.383996 202.46535 0 156.932 0 101.088 Z " fill="#393536"/>
<path transform="matrix(1,0,-0,1,674.30838,365.30805)" d="M 0 0 L 44.954687 0 L 44.954687 158.07068 L 117.405338 158.07068 L 117.405338 197.30666 L 0 197.30666 L 0 0 Z " fill="#393536"/>
<path transform="matrix(1,0,-0,1,806.64437,365.30805)" d="M 119.4147 112.54666 L 97.07734 43.52533 L 75.03066 112.54666 L 119.4147 112.54666 Z M 132.01204 151.492 L 62.71204 151.492 L 48.11471 197.30666 L 0 197.30666 L 73.01998 0 L 121.99465 0 L 194.7347 197.30666 L 146.91068 197.30666 L 132.01204 151.492 " fill="#393536"/>
<path transform="matrix(1,0,-0,1,1027.199,365.30805)" d="M 44.953317 92.49867 L 73.59068 92.49867 C 93.348018 92.49867 101.948047 79.61067 101.948047 66.43201 C 101.948047 53.264009 93.06797 39.236009 74.73997 39.236009 L 44.953317 39.236009 L 44.953317 92.49867 Z M 53.83333 128.00402 L 44.953317 128.00402 L 44.953317 197.30666 L 0 197.30666 L 0 0 L 80.749347 0 C 126.57334 0 147.19062 32.646669 147.19062 65.29201 C 147.19062 93.069339 132.5826 117.416 100.79726 125.42534 L 151.77069 197.30666 L 99.36666 197.30666 L 53.83333 128.00402 " fill="#393536"/>
</g>
</svg>
